<svg xmlns="http://www.w3.org/2000/svg" height="800" width="1200" viewBox="-150 -71.25325 1300 427.5195"><path d="M541.817 184.201c0 30.971-38.541 29.133-38.541 29.133h-38.54v-55.963h38.54c39.663-.266 38.541 26.83 38.541 26.83M464.736 72.023h29.368c30.496 1.611 29.345 24.316 29.345 24.316 0 28.216-33.721 28.676-33.721 28.676h-24.992zm69.952 63.997s26.38-11.241 26.145-41.057c0 0 4.012-48.864-60.729-54.824h-71.838v204.849h82.344s68.802.205 68.802-57.799c-.001 0 1.626-39.473-44.724-51.169M348.773 0h302.453v285.013H348.773zM193.041 184.201c0 30.971-38.541 29.133-38.541 29.133h-38.543v-55.963H154.5c39.666-.266 38.541 26.83 38.541 26.83M115.957 72.023h29.374c30.497 1.611 29.343 24.316 29.343 24.316 0 28.216-33.719 28.676-33.719 28.676h-24.998zm69.958 63.997s26.384-11.241 26.147-41.057c0 0 4.009-48.864-60.732-54.824H79.489v204.849h82.349s68.801.205 68.801-57.799c0 0 1.621-39.473-44.724-51.169M0 0h302.453v285.013H0zm938.301 54.825v37.846s-36.942-22.702-77.764-23.159c0 0-76.161-1.495-79.594 73.005 0 0-2.751 68.513 78.676 72.417 0 0 34.165 4.115 80.514-25.441v39.195s-62.173 36.939-134.197 8.488c0 0-60.545-22.109-62.851-94.659 0 0-2.518-74.619 78.23-99.389 0 0 21.563-8.255 60.313-4.586.001-.001 23.161 2.29 56.673 16.283M697.547 285.013H1000V0H697.547z"/></svg>