<svg width="197" height="56" viewBox="0 0 197 56" fill="none" xmlns="http://www.w3.org/2000/svg">
<path d="M189.704 55.698H7.29631C3.28338 55.698 0 52.565 0 48.7358V6.96228C0 3.13301 3.28332 0 7.29631 0H189.704C193.717 0 197 3.13301 197 6.96228V48.7357C197 52.565 193.717 55.698 189.704 55.698" fill="black"/>
<path d="M189.704 0H7.29631C3.28338 0 0 3.13301 0 6.96228V48.7357C0 52.565 3.28332 55.698 7.29631 55.698H189.704C193.717 55.698 197 52.565 197 48.7358V6.96228C197 3.13301 193.717 0 189.704 0M189.704 1.11392C193.083 1.11392 195.833 3.7379 195.833 6.96228V48.7357C195.833 51.9607 193.083 54.5846 189.704 54.5846H7.29631C3.91728 54.5846 1.16742 51.9606 1.16742 48.7358V6.96228C1.16742 3.7379 3.91721 1.11399 7.29631 1.11399H189.704" fill="#A6A6A6"/>
<path d="M69.1958 14.2635C69.1958 15.4301 68.8337 16.3591 68.1086 17.0521C67.285 17.8762 66.2116 18.2885 64.8919 18.2885C63.6282 18.2885 62.5538 17.8708 61.6702 17.0342C60.785 16.1982 60.3433 15.1615 60.3433 13.9246C60.3433 12.6871 60.785 11.651 61.6702 10.8143C62.5538 9.97841 63.6282 9.56006 64.8919 9.56006C65.519 9.56006 66.1193 9.67708 66.6893 9.91044C67.2593 10.1444 67.7165 10.4549 68.0585 10.8438L67.2889 11.5786C66.7093 10.9177 65.9112 10.5876 64.8919 10.5876C63.9703 10.5876 63.1734 10.8966 62.5008 11.515C61.8281 12.134 61.4918 12.9368 61.4918 13.9246C61.4918 14.9124 61.8281 15.7151 62.5008 16.3342C63.1734 16.9526 63.9703 17.2616 64.8919 17.2616C65.8697 17.2616 66.6848 16.9509 67.3374 16.3288C67.761 15.9234 68.006 15.36 68.0715 14.6365H64.8919V13.633H69.1347C69.1757 13.8512 69.1957 14.0606 69.1957 14.2635" fill="white"/>
<path d="M69.1959 14.2633H69.0499C69.0487 15.4034 68.6998 16.2888 68.0055 16.9535L68.004 16.9547L68.0033 16.9558C67.2058 17.7514 66.1808 18.1474 64.892 18.1491C63.662 18.1474 62.6325 17.7471 61.7728 16.9356C60.915 16.1224 60.4909 15.1297 60.4892 13.9244C60.4909 12.7186 60.915 11.7264 61.7728 10.9138C62.6325 10.1017 63.662 9.70083 64.892 9.69914C65.5002 9.69914 66.0794 9.81241 66.6317 10.0381C67.1846 10.2655 67.6214 10.5635 67.9468 10.9335L68.0585 10.8436L67.9554 10.7452L67.1858 11.4805L67.2889 11.5784L67.4013 11.4893C66.7947 10.7957 65.9432 10.4461 64.892 10.4482C63.9362 10.447 63.0954 10.7729 62.3999 11.4148C61.6976 12.0588 61.3448 12.9067 61.346 13.9244C61.3448 14.9422 61.6976 15.79 62.3999 16.4341C63.0954 17.0759 63.9362 17.4018 64.892 17.4007C65.902 17.4024 66.7629 17.0754 67.4406 16.4271C67.8932 15.994 68.1498 15.3942 68.217 14.6483L68.2306 14.4971H65.0379V13.7721H69.1348V13.6329L68.9911 13.6573C69.031 13.8685 69.0498 14.0691 69.0498 14.2633H69.3417C69.3417 14.0517 69.3211 13.8342 69.2784 13.6079L69.2568 13.4936H64.7461V14.7756H68.0716V14.6364L67.9263 14.6244C67.8619 15.3251 67.6282 15.8527 67.2343 16.2302C66.6073 16.8263 65.8377 17.1205 64.892 17.1222C64.0046 17.1211 63.2516 16.8295 62.6023 16.2339C61.9593 15.6405 61.6395 14.8828 61.6379 13.9244C61.6395 12.966 61.9593 12.2083 62.6023 11.6149C63.2516 11.0193 64.0045 10.7278 64.892 10.7266C65.8788 10.7289 66.6239 11.04 67.1774 11.6682L67.28 11.7846L68.1618 10.9421L68.2564 10.8519L68.1703 10.7544C67.8117 10.3465 67.3341 10.0228 66.7469 9.78249C66.1587 9.54144 65.5379 9.42066 64.892 9.42066C63.5947 9.41959 62.4752 9.85471 61.5671 10.7158C60.6557 11.5752 60.1963 12.6555 60.1975 13.9244C60.1963 15.1928 60.6557 16.2737 61.5677 17.1336C62.4752 17.9941 63.5947 18.4287 64.892 18.4276C66.243 18.4287 67.3638 18.0006 68.2142 17.1482L68.1087 17.052L68.2119 17.1505C68.9677 16.4297 69.3428 15.4561 69.3418 14.2633H69.1958M75.922 10.7734H71.9347V13.4225H75.5305V14.4264H71.9347V17.0754H75.922V18.1018H70.8106V9.74707H75.922V10.7734Z" fill="white"/>
<path d="M75.9219 10.7735V10.6343H71.7887V13.5618H75.3845V14.2868L71.7887 14.2872V17.2147H75.776V17.9626H70.9565V9.88639H75.776V10.7735H75.9219V10.6343V10.7735H76.0678V9.60791H70.6647V18.2411H76.0678V16.9362H72.0805V14.5657H75.6763V13.2833H72.0805V10.9128H76.0678V10.7735H75.9219ZM80.6662 18.1019H79.5405V10.7735H77.095V9.74709H83.1117V10.7735H80.6662V18.1018" fill="white"/>
<path d="M80.6662 18.1019V17.9626H79.6863V10.6343H77.241V9.88645H82.9657V10.6343H80.5203V18.1018H80.6662V17.9626V18.1018H80.8122V10.9128H83.2576V9.60791H76.9491V10.9127H79.3945V18.241H80.8122V18.1018H80.6662M87.4649 18.1019V9.74709H88.5896V18.1018H87.4649" fill="white"/>
<path d="M87.465 18.1019H87.6109V9.88639H88.4437V17.9626H87.465V18.1018H87.6109H87.465V18.2411H88.7355V9.60791H87.3191V18.2411H87.465V18.1018M93.5801 18.1019H92.4544V10.7735H90.009V9.74709H96.0256V10.7735H93.5801V18.1018" fill="white"/>
<path d="M93.5802 18.102V17.9627H92.6003V10.6344H90.155V9.88654H95.8796V10.6344H93.4343V18.1019H93.5802V17.9627V18.1019H93.7261V10.9129H96.1715V9.60799H89.8632V10.9128H92.3084V18.2411H93.7261V18.1019H93.5802M101.826 16.3228C102.474 16.9488 103.267 17.2615 104.205 17.2615C105.143 17.2615 105.936 16.9488 106.583 16.3228C107.232 15.6968 107.557 14.8965 107.557 13.9246C107.557 12.9527 107.232 12.1524 106.583 11.5264C105.936 10.9003 105.143 10.5876 104.205 10.5876C103.267 10.5876 102.474 10.9003 101.826 11.5264C101.179 12.1524 100.854 12.9526 100.854 13.9246C100.854 14.8965 101.179 15.6968 101.826 16.3228ZM107.415 17.0222C106.554 17.8669 105.484 18.2885 104.205 18.2885C102.925 18.2885 101.855 17.8669 100.996 17.0222C100.134 16.1785 99.7057 15.1458 99.7057 13.9246C99.7057 12.7034 100.134 11.6704 100.996 10.8269C101.855 9.9821 102.925 9.56006 104.205 9.56006C105.477 9.56006 106.545 9.98435 107.41 10.8324C108.273 11.6803 108.705 12.711 108.705 13.9246C108.705 15.1458 108.274 16.1785 107.415 17.0222Z" fill="white"/>
<path d="M101.826 16.3227L101.722 16.4205C102.394 17.0716 103.233 17.4024 104.205 17.4007C105.176 17.4024 106.016 17.0716 106.687 16.4205C107.363 15.7688 107.704 14.9258 107.702 13.9244C107.703 12.9231 107.363 12.08 106.687 11.4283C106.016 10.7772 105.176 10.4465 104.205 10.4482C103.233 10.4465 102.394 10.7772 101.722 11.4283C101.047 12.08 100.706 12.9231 100.708 13.9244C100.706 14.9257 101.047 15.7688 101.722 16.4205L101.826 16.3227L101.93 16.2247C101.311 15.6237 101.001 14.8676 101 13.9244C101.001 12.9813 101.311 12.2252 101.93 11.6241C102.555 11.0231 103.301 10.7283 104.205 10.7267C105.108 10.7283 105.856 11.0231 106.479 11.6241C107.099 12.2252 107.409 12.9813 107.41 13.9244C107.409 14.8675 107.099 15.6237 106.479 16.2247C105.856 16.8258 105.108 17.1205 104.205 17.1221C103.301 17.1205 102.555 16.8258 101.93 16.2247L101.826 16.3227ZM107.415 17.0221L107.311 16.9253C106.474 17.7434 105.451 18.1475 104.205 18.1491C102.958 18.1474 101.935 17.7434 101.1 16.9253L101.096 16.9209L101.1 16.9253C100.265 16.1045 99.8527 15.1146 99.8515 13.9244C99.8527 12.7343 100.265 11.7444 101.1 10.9236C101.935 10.1055 102.958 9.70083 104.205 9.6992C105.443 9.70083 106.464 10.1072 107.305 10.9295C108.143 11.7541 108.557 12.7425 108.559 13.9244C108.557 15.1146 108.144 16.1045 107.311 16.9253L107.415 17.0221L107.52 17.1188C108.405 16.2519 108.852 15.1765 108.851 13.9244C108.852 12.6795 108.403 11.6063 107.514 10.7355C106.625 9.86122 105.511 9.41916 104.205 9.42066C102.891 9.41916 101.774 9.85916 100.891 10.73V10.7294C100.004 11.5969 99.5585 12.6723 99.5597 13.9244C99.5585 15.1765 100.004 16.2519 100.891 17.1194L100.895 17.1233L100.891 17.1188C101.774 17.9897 102.891 18.4287 104.205 18.4276C105.518 18.4287 106.635 17.9897 107.52 17.1188L107.415 17.0221ZM110.284 18.1018V9.74701H111.653L115.908 16.2464H115.957L115.908 14.6363V9.74701H117.034V18.1017H115.86L111.408 11.2874H111.36L111.408 12.898V18.1017H110.284" fill="white"/>
<path d="M110.284 18.1019H110.43V9.88639H111.572L115.828 16.3858H116.107L116.054 14.6344V9.88645H116.888V17.9626H115.941L111.489 11.1483H111.21L111.262 12.9004V17.9626H110.284V18.1018H110.43H110.284V18.2411H111.554V12.8959L111.506 11.2837L111.36 11.2875V11.4267H111.408V11.2875L111.284 11.3615L115.779 18.2411H117.18V9.60791H115.763V14.6381L115.811 16.2503L115.957 16.2465V16.1073H115.909V16.2465L116.032 16.1726L111.734 9.60791H110.138V18.2411H110.284V18.1018M156.047 41.7735H158.77V24.3662H156.047L156.047 41.7735ZM180.573 30.6367L177.452 38.1836H177.358L174.119 30.6367H171.186L176.044 41.1849L173.274 47.0523H176.115L183.601 30.6367L180.573 30.6367ZM165.131 39.7964C164.238 39.7964 162.995 39.371 162.995 38.318C162.995 36.9744 164.545 36.4594 165.881 36.4594C167.079 36.4594 167.641 36.7057 168.369 37.042C168.158 38.6541 166.703 39.7964 165.131 39.7964ZM165.46 30.2559C163.488 30.2559 161.447 31.0847 160.602 32.9212L163.018 33.8839C163.535 32.9212 164.497 32.6073 165.506 32.6073C166.915 32.6073 168.346 33.4139 168.369 34.8472V35.0262C167.876 34.7574 166.821 34.3544 165.53 34.3544C162.925 34.3544 160.272 35.7201 160.272 38.2733C160.272 40.6025 162.408 42.1031 164.802 42.1031C166.633 42.1031 167.641 41.3193 168.276 40.4012H168.369V41.7447H170.998V35.0707C170.998 31.9807 168.581 30.2559 165.46 30.2559ZM148.631 32.7557H144.759V26.7889H148.631C150.667 26.7889 151.823 28.3972 151.823 29.7723C151.823 31.1212 150.667 32.7557 148.631 32.7557ZM148.561 24.3662H142.037V41.7735H144.759V35.1784H148.561C151.579 35.1784 154.546 33.0935 154.546 29.7723C154.546 26.4511 151.579 24.3662 148.561 24.3662ZM112.983 39.7996C111.102 39.7996 109.527 38.2967 109.527 36.2325C109.527 34.1467 111.102 32.6209 112.983 32.6209C114.84 32.6209 116.298 34.1466 116.298 36.2325C116.298 38.2967 114.84 39.7996 112.983 39.7996H112.983ZM116.11 31.6114H116.016C115.405 30.9162 114.229 30.288 112.748 30.288C109.645 30.288 106.8 32.8901 106.8 36.2325C106.8 39.5527 109.644 42.1325 112.748 42.1325C114.229 42.1325 115.405 41.5042 116.016 40.7868H116.11V41.6391C116.11 43.9052 114.84 45.1165 112.795 45.1165C111.126 45.1165 110.092 43.972 109.668 43.0076L107.294 43.9498C107.976 45.52 109.786 47.4494 112.795 47.4494C115.992 47.4494 118.696 45.6544 118.696 41.2802V30.647H116.11V31.6114ZM120.576 41.7735H123.304V24.3656H120.576V41.7735ZM127.324 36.0308C127.253 33.7424 129.181 32.5762 130.568 32.5762C131.65 32.5762 132.566 33.0919 132.871 33.8328L127.324 36.0308ZM135.787 34.0568C135.27 32.7329 133.694 30.288 130.474 30.288C127.277 30.288 124.62 32.6883 124.62 36.2102C124.62 39.5304 127.253 42.1325 130.779 42.1325C133.624 42.1325 135.27 40.4724 135.952 39.508L133.836 38.1617C133.131 39.149 132.167 39.7996 130.779 39.7996C129.392 39.7996 128.405 39.1937 127.77 38.0051L136.069 34.7297L135.787 34.0568ZM69.6706 32.1052V34.6176H75.971C75.7829 36.0308 75.2892 37.0626 74.5368 37.7805C73.6202 38.6557 72.1861 39.6201 69.6706 39.6201C65.7914 39.6201 62.759 36.6366 62.759 32.9352C62.759 29.2338 65.7914 26.2499 69.6706 26.2499C71.7631 26.2499 73.2907 27.0353 74.4193 28.0447L76.2765 26.2727C74.7016 24.8367 72.609 23.7375 69.6706 23.7375C64.3573 23.7375 59.8906 27.8653 59.8906 32.9352C59.8906 38.0051 64.3573 42.1325 69.6706 42.1325C72.5389 42.1325 74.7016 41.2356 76.394 39.5527C78.1338 37.8926 78.6747 35.5597 78.6747 33.6756C78.6747 33.0919 78.6279 32.5539 78.5333 32.1052H69.6706ZM85.8376 39.7996C83.9565 39.7996 82.3342 38.3189 82.3342 36.2102C82.3342 34.0791 83.9565 32.6209 85.8376 32.6209C87.718 32.6209 89.3403 34.0791 89.3403 36.2102C89.3403 38.319 87.718 39.7996 85.8376 39.7996ZM85.8376 30.288C82.4048 30.288 79.6072 32.778 79.6072 36.2102C79.6072 39.6201 82.4048 42.1325 85.8376 42.1325C89.2696 42.1325 92.0673 39.6201 92.0673 36.2102C92.0673 32.778 89.2696 30.288 85.8376 30.288ZM99.4279 39.7996C97.5476 39.7996 95.9251 38.3189 95.9251 36.2102C95.9251 34.0791 97.5476 32.6209 99.428 32.6209C101.309 32.6209 102.931 34.0791 102.931 36.2102C102.931 38.319 101.309 39.7996 99.428 39.7996H99.4279ZM99.4279 30.288C95.9954 30.288 93.1983 32.778 93.1983 36.2102C93.1983 39.6201 95.9954 42.1325 99.428 42.1325C102.86 42.1325 105.658 39.6201 105.658 36.2102C105.658 32.778 102.86 30.288 99.428 30.288H99.4279Z" fill="white"/>
<path d="M15.3348 10.5985C14.845 11.0201 14.5527 11.7233 14.5527 12.6568V12.4457V43.2482V43.0454C14.5527 43.9074 14.8035 44.5731 15.2281 45.0019L15.3365 45.1009V45.1013C15.6801 45.3972 16.1209 45.5544 16.6259 45.5539C17.1195 45.5539 17.6747 45.4037 18.2607 45.0867L39.4422 33.6028L46.7179 29.6577C47.6419 29.1568 48.1606 28.5106 48.2474 27.8524V27.8497C48.1606 27.19 47.6419 26.5443 46.7179 26.0433L39.4416 22.0987L18.2608 10.6148C17.6735 10.2972 17.1179 10.1465 16.623 10.1465C16.1186 10.1465 15.6784 10.3031 15.3349 10.5985H15.3348Z" fill="#00C1FF"/>
<path d="M15.3365 45.1006L15.2281 45.0016C14.8035 44.5729 14.5527 43.9071 14.5527 43.0451V43.248V12.4531V12.6565C14.5527 11.723 14.845 11.0198 15.3348 10.5982L33.4147 27.85L15.3365 45.1006Z" fill="url(#paint0_linear_216_967)"/>
<path d="M39.4423 33.6025L33.4148 27.8501L39.4417 22.0985L46.718 26.0431C47.642 26.5441 48.1607 27.1897 48.2474 27.8495V27.8521C48.1607 28.5103 47.642 29.1566 46.718 29.6574L39.4423 33.6025" fill="url(#paint1_linear_216_967)"/>
<path d="M16.6259 45.5537C16.1209 45.5541 15.6802 45.3969 15.3365 45.1011V45.1006L33.4147 27.85L39.4422 33.6025L18.2607 45.0865C17.6747 45.4036 17.1194 45.5537 16.6259 45.5537Z" fill="url(#paint2_linear_216_967)"/>
<path d="M33.4146 27.8501L15.3346 10.5984C15.6783 10.303 16.1184 10.1463 16.6228 10.1463C17.1176 10.1463 17.6734 10.297 18.2606 10.6146L39.4415 22.0986L33.4146 27.8501" fill="url(#paint3_linear_216_967)"/>
<path d="M16.6265 45.7576C16.1214 45.7576 15.6802 45.6004 15.3365 45.3045L15.3359 45.305C15.3345 45.3036 15.3329 45.3024 15.3313 45.3012L15.2373 45.2136C15.2344 45.2109 15.2316 45.2077 15.2281 45.2045L15.3365 45.101C15.6802 45.3969 16.1209 45.5541 16.626 45.5536C17.1195 45.5536 17.6747 45.4035 18.2607 45.0864L39.4422 33.6025L39.5779 33.732L39.4405 33.8065L18.2607 45.2898C17.7266 45.5787 17.2186 45.7293 16.7598 45.7544C16.7154 45.7564 16.6709 45.7575 16.6265 45.7575" fill="url(#paint4_linear_216_967)"/>
<path d="M15.2281 45.2046C14.8035 44.7759 14.5527 44.1107 14.5527 43.2481V43.0452C14.5527 43.9072 14.8035 44.573 15.2281 45.0017L15.3365 45.1007L15.2281 45.2046Z" fill="url(#paint5_linear_216_967)"/>
<path d="M39.5779 33.7319L39.4421 33.6023L46.7178 29.6573C47.6419 29.1565 48.1606 28.5102 48.2473 27.852C48.2473 28.0935 48.1908 28.335 48.0786 28.5701C47.8523 29.0438 47.3986 29.4914 46.7179 29.8607L39.5779 33.7319" fill="url(#paint6_linear_216_967)"/>
<path d="M48.2474 27.8496C48.1607 27.1898 47.642 26.5442 46.718 26.0432L39.4417 22.0986L39.5774 21.9691H39.578L46.718 25.8403C47.7367 26.3929 48.2468 27.1212 48.2474 27.8496Z" fill="url(#paint7_linear_216_967)"/>
<path d="M14.5527 12.6567V12.444C14.5527 12.3672 14.5549 12.2922 14.559 12.2194V12.216C14.559 12.215 14.559 12.214 14.5594 12.2129V12.2047C14.6034 11.4621 14.845 10.883 15.2281 10.4962L15.3348 10.5984C14.845 11.0201 14.5527 11.7233 14.5527 12.6567Z" fill="url(#paint8_linear_216_967)"/>
<path d="M39.4416 22.0986L18.2607 10.6146C17.6735 10.297 17.1179 10.1464 16.623 10.1464C16.1186 10.1464 15.6784 10.303 15.3348 10.5984L15.2281 10.4961C15.2615 10.4625 15.2961 10.43 15.3319 10.3988C15.3331 10.3977 15.3348 10.3965 15.3359 10.3955C15.6769 10.1024 16.1123 9.94572 16.6123 9.9429H16.623C17.1179 9.9429 17.6735 10.0936 18.2607 10.4113L39.5779 21.9687L39.5773 21.9691L39.4416 22.0986Z" fill="url(#paint9_linear_216_967)"/>
<defs>
<linearGradient id="paint0_linear_216_967" x1="26.1069" y1="12.1276" x2="11.282" y2="27.714" gradientUnits="userSpaceOnUse">
<stop stop-color="#00A0FF"/>
<stop offset="0.00657" stop-color="#00A1FF"/>
<stop offset="0.2601" stop-color="#00BEFF"/>
<stop offset="0.5122" stop-color="#00D2FF"/>
<stop offset="0.7604" stop-color="#00DFFF"/>
<stop offset="1" stop-color="#00E3FF"/>
</linearGradient>
<linearGradient id="paint1_linear_216_967" x1="49.3732" y1="27.7506" x2="14.0635" y2="27.7506" gradientUnits="userSpaceOnUse">
<stop stop-color="#FFE000"/>
<stop offset="0.4087" stop-color="#FFBD00"/>
<stop offset="0.7754" stop-color="#FFA500"/>
<stop offset="1" stop-color="#FF9C00"/>
</linearGradient>
<linearGradient id="paint2_linear_216_967" x1="36.2421" y1="33.3193" x2="11.1113" y2="59.548" gradientUnits="userSpaceOnUse">
<stop stop-color="#FF3A44"/>
<stop offset="1" stop-color="#C31162"/>
</linearGradient>
<linearGradient id="paint3_linear_216_967" x1="10.6749" y1="8.0407" x2="21.8743" y2="19.7474" gradientUnits="userSpaceOnUse">
<stop stop-color="#32A071"/>
<stop offset="0.0685" stop-color="#2DA771"/>
<stop offset="0.4762" stop-color="#15CF74"/>
<stop offset="0.8009" stop-color="#06E775"/>
<stop offset="1" stop-color="#00F076"/>
</linearGradient>
<linearGradient id="paint4_linear_216_967" x1="36.229" y1="37.3094" x2="16.1101" y2="58.4619" gradientUnits="userSpaceOnUse">
<stop stop-color="#CC2E36"/>
<stop offset="1" stop-color="#9C0E4E"/>
</linearGradient>
<linearGradient id="paint5_linear_216_967" x1="16.9613" y1="12.1277" x2="3.90071" y2="25.8593" gradientUnits="userSpaceOnUse">
<stop stop-color="#008DE0"/>
<stop offset="0.00657" stop-color="#008DE0"/>
<stop offset="0.2601" stop-color="#00A7E0"/>
<stop offset="0.5122" stop-color="#00B8E0"/>
<stop offset="0.7604" stop-color="#00C4E0"/>
<stop offset="1" stop-color="#00C7E0"/>
</linearGradient>
<linearGradient id="paint6_linear_216_967" x1="49.3732" y1="27.8507" x2="14.0634" y2="27.8507" gradientUnits="userSpaceOnUse">
<stop stop-color="#E0C500"/>
<stop offset="0.4087" stop-color="#E0A600"/>
<stop offset="0.7754" stop-color="#E09100"/>
<stop offset="1" stop-color="#E08900"/>
</linearGradient>
<linearGradient id="paint7_linear_216_967" x1="49.3733" y1="27.851" x2="14.0636" y2="27.851" gradientUnits="userSpaceOnUse">
<stop stop-color="#FFE840"/>
<stop offset="0.4087" stop-color="#FFCE40"/>
<stop offset="0.7754" stop-color="#FFBC40"/>
<stop offset="1" stop-color="#FFB540"/>
</linearGradient>
<linearGradient id="paint8_linear_216_967" x1="16.9464" y1="12.1515" x2="4.33971" y2="24.8316" gradientUnits="userSpaceOnUse">
<stop stop-color="#40B8FF"/>
<stop offset="0.00657" stop-color="#40B9FF"/>
<stop offset="0.2601" stop-color="#40CEFF"/>
<stop offset="0.5122" stop-color="#40DDFF"/>
<stop offset="0.7604" stop-color="#40E7FF"/>
<stop offset="1" stop-color="#40EAFF"/>
</linearGradient>
<linearGradient id="paint9_linear_216_967" x1="10.6487" y1="11.6891" x2="19.6327" y2="21.1347" gradientUnits="userSpaceOnUse">
<stop stop-color="#65B895"/>
<stop offset="0.0685" stop-color="#62BD95"/>
<stop offset="0.4762" stop-color="#50DB97"/>
<stop offset="0.8009" stop-color="#44ED98"/>
<stop offset="1" stop-color="#40F498"/>
</linearGradient>
</defs>
</svg>
