<?xml version="1.0" encoding="UTF-8"?>
<!DOCTYPE svg PUBLIC "-//W3C//DTD SVG 1.1//EN" "http://www.w3.org/Graphics/SVG/1.1/DTD/svg11.dtd">
<!-- Creator: CorelDRAW 2019 (64-Bit) -->
<svg xmlns="http://www.w3.org/2000/svg" xml:space="preserve" width="6.24052in" height="6.24052in" version="1.1" style="shape-rendering:geometricPrecision; text-rendering:geometricPrecision; image-rendering:optimizeQuality; fill-rule:evenodd; clip-rule:evenodd"
viewBox="0 0 533.17 533.17"
 xmlns:xlink="http://www.w3.org/1999/xlink"
 xmlns:xodm="http://www.corel.com/coreldraw/odm/2003">
 <defs>
  <style type="text/css">
   <![CDATA[
    .fil0 {fill:#40196D}
    .fil1 {fill:white}
    .fil2 {fill:white;fill-rule:nonzero}
   ]]>
  </style>
 </defs>
 <g id="Layer_x0020_1">
  <metadata id="CorelCorpID_0Corel-Layer"/>
  <circle class="fil0" cx="266.59" cy="266.59" r="266.59"/>
  <path class="fil1" d="M523.14 339.28c-2.55,9.03 -5.58,17.86 -9.03,26.47l-285.34 164.74c-9.32,-1.33 -18.5,-3.12 -27.48,-5.39l321.86 -185.82z"/>
  <path class="fil2" d="M186.25 254.92l19.92 0 0 63.7c0,101.58 38.51,138.1 140.75,138.1l0 -5.98c-41.83,0 -57.76,-27.88 -57.76,-132.12l0 -63.7 57.76 0 0 -53.31 -57.76 0 0 -59.65c8.56,-6.71 14.07,-17.14 14.07,-28.86 0,-20.24 -16.4,-36.64 -36.64,-36.64 -20.24,0 -36.64,16.4 -36.64,36.64 0,20.24 16.4,36.64 36.64,36.64 0.24,0 0.48,-0 0.72,-0.01 -13.01,28.61 -34.16,51.88 -61.14,51.88l-19.92 0 0 53.31z"/>
 </g>
</svg>
