<svg width="197" height="57" viewBox="0 0 197 57" fill="none" xmlns="http://www.w3.org/2000/svg">
<rect width="197" height="57" rx="10" transform="matrix(-1 0 0 1 197 0)" fill="black"/>
<path d="M34.54 31C34.66 30.01 34.75 29.02 34.75 28C34.75 26.98 34.66 25.99 34.54 25H39.61C39.85 25.96 40 26.965 40 28C40 29.035 39.85 30.04 39.61 31M31.885 39.34C32.785 37.675 33.475 35.875 33.955 34H38.38C36.9268 36.5024 34.6212 38.398 31.885 39.34ZM31.51 31H24.49C24.34 30.01 24.25 29.02 24.25 28C24.25 26.98 24.34 25.975 24.49 25H31.51C31.645 25.975 31.75 26.98 31.75 28C31.75 29.02 31.645 30.01 31.51 31ZM28 39.94C26.755 38.14 25.75 36.145 25.135 34H30.865C30.25 36.145 29.245 38.14 28 39.94ZM22 22H17.62C19.0583 19.4908 21.3622 17.5922 24.1 16.66C23.2 18.325 22.525 20.125 22 22ZM17.62 34H22C22.525 35.875 23.2 37.675 24.1 39.34C21.3679 38.3975 19.0673 36.5016 17.62 34ZM16.39 31C16.15 30.04 16 29.035 16 28C16 26.965 16.15 25.96 16.39 25H21.46C21.34 25.99 21.25 26.98 21.25 28C21.25 29.02 21.34 30.01 21.46 31M28 16.045C29.245 17.845 30.25 19.855 30.865 22H25.135C25.75 19.855 26.755 17.845 28 16.045ZM38.38 22H33.955C33.4855 20.1422 32.7904 18.3488 31.885 16.66C34.645 17.605 36.94 19.51 38.38 22ZM28 13C19.705 13 13 19.75 13 28C13 31.9782 14.5804 35.7936 17.3934 38.6066C18.7863 39.9995 20.4399 41.1044 22.2597 41.8582C24.0796 42.612 26.0302 43 28 43C31.9782 43 35.7936 41.4196 38.6066 38.6066C41.4196 35.7936 43 31.9782 43 28C43 26.0302 42.612 24.0796 41.8582 22.2597C41.1044 20.4399 39.9995 18.7863 38.6066 17.3934C37.2137 16.0005 35.5601 14.8956 33.7403 14.1418C31.9204 13.388 29.9698 13 28 13Z" fill="white"/>
<path d="M74.036 22.436L70.526 35H67.556L65.198 26.054L62.732 35L59.78 35.018L56.396 22.436H59.096L61.31 32.192L63.866 22.436H66.674L69.086 32.138L71.318 22.436H74.036ZM84.9515 29.798C84.9515 30.158 84.9275 30.482 84.8795 30.77H77.5895C77.6495 31.49 77.9015 32.054 78.3455 32.462C78.7895 32.87 79.3355 33.074 79.9835 33.074C80.9195 33.074 81.5855 32.672 81.9815 31.868H84.6995C84.4115 32.828 83.8595 33.62 83.0435 34.244C82.2275 34.856 81.2255 35.162 80.0375 35.162C79.0775 35.162 78.2135 34.952 77.4455 34.532C76.6895 34.1 76.0955 33.494 75.6635 32.714C75.2435 31.934 75.0335 31.034 75.0335 30.014C75.0335 28.982 75.2435 28.076 75.6635 27.296C76.0835 26.516 76.6715 25.916 77.4275 25.496C78.1835 25.076 79.0535 24.866 80.0375 24.866C80.9855 24.866 81.8315 25.07 82.5755 25.478C83.3315 25.886 83.9135 26.468 84.3215 27.224C84.7415 27.968 84.9515 28.826 84.9515 29.798ZM82.3415 29.078C82.3295 28.43 82.0955 27.914 81.6395 27.53C81.1835 27.134 80.6255 26.936 79.9655 26.936C79.3415 26.936 78.8135 27.128 78.3815 27.512C77.9615 27.884 77.7035 28.406 77.6075 29.078H82.3415ZM89.3108 26.486C89.6348 26.006 90.0788 25.616 90.6428 25.316C91.2188 25.016 91.8728 24.866 92.6048 24.866C93.4568 24.866 94.2248 25.076 94.9088 25.496C95.6048 25.916 96.1508 26.516 96.5468 27.296C96.9548 28.064 97.1588 28.958 97.1588 29.978C97.1588 30.998 96.9548 31.904 96.5468 32.696C96.1508 33.476 95.6048 34.082 94.9088 34.514C94.2248 34.946 93.4568 35.162 92.6048 35.162C91.8608 35.162 91.2068 35.018 90.6428 34.73C90.0908 34.43 89.6468 34.046 89.3108 33.578V35H86.7908V21.68H89.3108V26.486ZM94.5848 29.978C94.5848 29.378 94.4588 28.862 94.2068 28.43C93.9668 27.986 93.6428 27.65 93.2348 27.422C92.8388 27.194 92.4068 27.08 91.9388 27.08C91.4828 27.08 91.0508 27.2 90.6428 27.44C90.2468 27.668 89.9228 28.004 89.6708 28.448C89.4308 28.892 89.3108 29.414 89.3108 30.014C89.3108 30.614 89.4308 31.136 89.6708 31.58C89.9228 32.024 90.2468 32.366 90.6428 32.606C91.0508 32.834 91.4828 32.948 91.9388 32.948C92.4068 32.948 92.8388 32.828 93.2348 32.588C93.6428 32.348 93.9668 32.006 94.2068 31.562C94.4588 31.118 94.5848 30.59 94.5848 29.978ZM110.407 28.556C111.115 28.688 111.697 29.042 112.153 29.618C112.609 30.194 112.837 30.854 112.837 31.598C112.837 32.27 112.669 32.864 112.333 33.38C112.009 33.884 111.535 34.28 110.911 34.568C110.287 34.856 109.549 35 108.697 35H103.279V22.436H108.463C109.315 22.436 110.047 22.574 110.659 22.85C111.283 23.126 111.751 23.51 112.063 24.002C112.387 24.494 112.549 25.052 112.549 25.676C112.549 26.408 112.351 27.02 111.955 27.512C111.571 28.004 111.055 28.352 110.407 28.556ZM105.799 27.62H108.103C108.703 27.62 109.165 27.488 109.489 27.224C109.813 26.948 109.975 26.558 109.975 26.054C109.975 25.55 109.813 25.16 109.489 24.884C109.165 24.608 108.703 24.47 108.103 24.47H105.799V27.62ZM108.337 32.948C108.949 32.948 109.423 32.804 109.759 32.516C110.107 32.228 110.281 31.82 110.281 31.292C110.281 30.752 110.101 30.332 109.741 30.032C109.381 29.72 108.895 29.564 108.283 29.564H105.799V32.948H108.337ZM117.366 26.576C117.69 26.048 118.11 25.634 118.626 25.334C119.154 25.034 119.754 24.884 120.426 24.884V27.53H119.76C118.968 27.53 118.368 27.716 117.96 28.088C117.564 28.46 117.366 29.108 117.366 30.032V35H114.846V25.028H117.366V26.576ZM126.551 35.162C125.591 35.162 124.727 34.952 123.959 34.532C123.191 34.1 122.585 33.494 122.141 32.714C121.709 31.934 121.493 31.034 121.493 30.014C121.493 28.994 121.715 28.094 122.159 27.314C122.615 26.534 123.233 25.934 124.013 25.514C124.793 25.082 125.663 24.866 126.623 24.866C127.583 24.866 128.453 25.082 129.233 25.514C130.013 25.934 130.625 26.534 131.069 27.314C131.525 28.094 131.753 28.994 131.753 30.014C131.753 31.034 131.519 31.934 131.051 32.714C130.595 33.494 129.971 34.1 129.179 34.532C128.399 34.952 127.523 35.162 126.551 35.162ZM126.551 32.966C127.007 32.966 127.433 32.858 127.829 32.642C128.237 32.414 128.561 32.078 128.801 31.634C129.041 31.19 129.161 30.65 129.161 30.014C129.161 29.066 128.909 28.34 128.405 27.836C127.913 27.32 127.307 27.062 126.587 27.062C125.867 27.062 125.261 27.32 124.769 27.836C124.289 28.34 124.049 29.066 124.049 30.014C124.049 30.962 124.283 31.694 124.751 32.21C125.231 32.714 125.831 32.966 126.551 32.966ZM147.425 25.028L144.509 35H141.791L139.973 28.034L138.155 35H135.419L132.485 25.028H135.041L136.805 32.624L138.713 25.028H141.377L143.249 32.606L145.013 25.028H147.425ZM152.605 35.162C151.789 35.162 151.057 35.018 150.409 34.73C149.761 34.43 149.245 34.028 148.861 33.524C148.489 33.02 148.285 32.462 148.249 31.85H150.787C150.835 32.234 151.021 32.552 151.345 32.804C151.681 33.056 152.095 33.182 152.587 33.182C153.067 33.182 153.439 33.086 153.703 32.894C153.979 32.702 154.117 32.456 154.117 32.156C154.117 31.832 153.949 31.592 153.613 31.436C153.289 31.268 152.767 31.088 152.047 30.896C151.303 30.716 150.691 30.53 150.211 30.338C149.743 30.146 149.335 29.852 148.987 29.456C148.651 29.06 148.483 28.526 148.483 27.854C148.483 27.302 148.639 26.798 148.951 26.342C149.275 25.886 149.731 25.526 150.319 25.262C150.919 24.998 151.621 24.866 152.425 24.866C153.613 24.866 154.561 25.166 155.269 25.766C155.977 26.354 156.367 27.152 156.439 28.16H154.027C153.991 27.764 153.823 27.452 153.523 27.224C153.235 26.984 152.845 26.864 152.353 26.864C151.897 26.864 151.543 26.948 151.291 27.116C151.051 27.284 150.931 27.518 150.931 27.818C150.931 28.154 151.099 28.412 151.435 28.592C151.771 28.76 152.293 28.934 153.001 29.114C153.721 29.294 154.315 29.48 154.783 29.672C155.251 29.864 155.653 30.164 155.989 30.572C156.337 30.968 156.517 31.496 156.529 32.156C156.529 32.732 156.367 33.248 156.043 33.704C155.731 34.16 155.275 34.52 154.675 34.784C154.087 35.036 153.397 35.162 152.605 35.162ZM167.867 29.798C167.867 30.158 167.843 30.482 167.795 30.77H160.505C160.565 31.49 160.817 32.054 161.261 32.462C161.705 32.87 162.251 33.074 162.899 33.074C163.835 33.074 164.501 32.672 164.897 31.868H167.615C167.327 32.828 166.775 33.62 165.959 34.244C165.143 34.856 164.141 35.162 162.953 35.162C161.993 35.162 161.129 34.952 160.361 34.532C159.605 34.1 159.011 33.494 158.579 32.714C158.159 31.934 157.949 31.034 157.949 30.014C157.949 28.982 158.159 28.076 158.579 27.296C158.999 26.516 159.587 25.916 160.343 25.496C161.099 25.076 161.969 24.866 162.953 24.866C163.901 24.866 164.747 25.07 165.491 25.478C166.247 25.886 166.829 26.468 167.237 27.224C167.657 27.968 167.867 28.826 167.867 29.798ZM165.257 29.078C165.245 28.43 165.011 27.914 164.555 27.53C164.099 27.134 163.541 26.936 162.881 26.936C162.257 26.936 161.729 27.128 161.297 27.512C160.877 27.884 160.619 28.406 160.523 29.078H165.257ZM172.227 26.576C172.551 26.048 172.971 25.634 173.487 25.334C174.015 25.034 174.615 24.884 175.287 24.884V27.53H174.621C173.829 27.53 173.229 27.716 172.821 28.088C172.425 28.46 172.227 29.108 172.227 30.032V35H169.707V25.028H172.227V26.576Z" fill="white"/>
</svg>
