<svg width="197" height="56" viewBox="0 0 197 56" fill="none" xmlns="http://www.w3.org/2000/svg">
<path d="M195.693 49.1225C195.693 49.8235 195.548 50.5177 195.267 51.1653C194.986 51.8128 194.573 52.4012 194.053 52.8966C193.533 53.392 192.916 53.7849 192.237 54.0526C191.558 54.3204 190.83 54.4578 190.095 54.4571H6.90457C5.4198 54.4586 3.9952 53.8974 2.94408 52.897C1.89295 51.8966 1.30137 50.5389 1.29944 49.1225V6.58126C1.30137 5.1642 1.89272 3.8058 2.94363 2.80431C3.99455 1.80282 5.41912 1.24011 6.90457 1.23975H190.094C190.829 1.23975 191.557 1.37792 192.237 1.64637C192.916 1.91482 193.533 2.3083 194.053 2.80432C194.573 3.30035 194.985 3.8892 195.266 4.53726C195.547 5.18531 195.692 5.87987 195.692 6.58126L195.693 49.1225Z" fill="white"/>
<path d="M190.095 55.698H6.90457C5.0755 55.6976 3.32129 55.0051 2.02685 53.7723C0.732414 52.5396 0.00348021 50.8673 0 49.1224L0 6.58253C0.00270584 4.8368 0.731158 3.16338 2.02556 1.92935C3.31995 0.695328 5.0746 0.00147346 6.90457 0L190.094 0C191.924 0.00220868 193.678 0.696299 194.972 1.93016C196.266 3.16403 196.995 4.83703 196.999 6.58253V49.1224C197.001 52.7494 193.899 55.698 190.095 55.698Z" fill="#A6A6A6"/>
<path d="M195.693 49.1225C195.693 49.8235 195.548 50.5177 195.267 51.1653C194.986 51.8128 194.573 52.4012 194.053 52.8966C193.533 53.392 192.916 53.7849 192.237 54.0526C191.558 54.3204 190.83 54.4578 190.095 54.4571H6.90457C5.4198 54.4586 3.9952 53.8974 2.94408 52.897C1.89295 51.8966 1.30137 50.5389 1.29944 49.1225V6.58126C1.30137 5.1642 1.89272 3.8058 2.94363 2.80431C3.99455 1.80282 5.41912 1.24011 6.90457 1.23975H190.094C190.829 1.23975 191.557 1.37792 192.237 1.64637C192.916 1.91482 193.533 2.3083 194.053 2.80432C194.573 3.30035 194.985 3.8892 195.266 4.53726C195.547 5.18531 195.692 5.87987 195.692 6.58126L195.693 49.1225Z" fill="black"/>
<path d="M43.9883 27.5557C43.946 23.0666 47.8414 20.8827 48.0195 20.781C45.8134 17.7126 42.3939 17.2933 41.1923 17.2599C38.3204 16.9716 35.5346 18.8993 34.0716 18.8993C32.5795 18.8993 30.3266 17.2878 27.8986 17.3351C24.7741 17.3811 21.851 19.1068 20.2479 21.7866C16.9394 27.2507 19.4069 35.2804 22.5767 39.6971C24.1623 41.8615 26.0151 44.2753 28.4402 44.1903C30.8128 44.0984 31.6991 42.7487 34.5622 42.7487C37.3991 42.7487 38.2313 44.1903 40.7046 44.136C43.251 44.0984 44.8541 41.9632 46.3842 39.7806C48.2166 37.3028 48.9525 34.8597 48.9817 34.7344C48.9233 34.7149 44.0379 32.9349 43.9883 27.5557ZM39.3161 14.3545C40.5922 12.8321 41.4653 10.761 41.223 8.65918C39.376 8.73718 37.0662 9.87791 35.7361 11.3668C34.5593 12.6789 33.5081 14.8294 33.7796 16.8518C35.8544 16.9995 37.9846 15.8532 39.3161 14.3545Z" fill="white"/>
<path d="M190.095 0H91.9728L130.406 55.698H190.095C191.925 55.6965 193.679 55.003 194.973 53.7696C196.268 52.5362 196.997 50.8635 197 49.1182V6.58253C196.997 4.83691 196.268 3.1637 194.974 1.92976C193.68 0.695814 191.925 0.00184121 190.095 0V0Z" fill="url(#paint0_linear_216_989)"/>
<path d="M78.3535 43.8798H75.0377L73.2214 38.4352H66.9082L65.178 43.8798H61.9498L68.2061 25.344H72.0694L78.3535 43.8798ZM72.6739 36.151L71.0313 31.3109C70.8576 30.8164 70.5305 29.652 70.0516 27.819H69.9932C69.8005 28.6074 69.4924 29.7718 69.0705 31.3109L67.4557 36.151H72.6739ZM94.4111 37.0326C94.4111 39.3057 93.7643 41.1025 92.4692 42.4215C91.3099 43.5956 89.8689 44.182 88.1504 44.182C86.2947 44.182 84.9602 43.5511 84.1499 42.2864V49.2993H81.037V34.9072C81.037 33.4795 80.9976 32.0156 80.9217 30.5142H83.6593L83.833 32.6327H83.8914C84.9295 31.0365 86.5049 30.2384 88.6191 30.2384C90.2719 30.2384 91.6516 30.861 92.7554 32.1076C93.8577 33.3569 94.4111 34.9977 94.4111 37.0326ZM91.2399 37.1413C91.2399 35.8404 90.9333 34.7679 90.3171 33.9224C89.644 33.0435 88.7403 32.6034 87.6073 32.6034C86.8393 32.6034 86.1414 32.8485 85.5179 33.3319C84.893 33.8194 84.4842 34.4559 84.293 35.2442C84.2076 35.539 84.159 35.8425 84.1484 36.1482V38.3781C84.1484 39.3489 84.4609 40.1693 85.0858 40.8406C85.7107 41.5092 86.5224 41.8449 87.5211 41.8449C88.6935 41.8449 89.6061 41.4117 90.2587 40.5523C90.9128 39.6901 91.2399 38.5536 91.2399 37.1413ZM110.526 37.0326C110.526 39.3057 109.879 41.1025 108.584 42.4215C107.423 43.5956 105.983 44.182 104.264 44.182C102.408 44.182 101.073 43.5511 100.263 42.2864V49.2993H97.1501V34.9072C97.1501 33.4795 97.1107 32.0156 97.0348 30.5142H99.7724L99.9461 32.6327H100.005C101.041 31.0365 102.617 30.2384 104.732 30.2384C106.383 30.2384 107.763 30.861 108.87 32.1076C109.971 33.3569 110.526 34.9977 110.526 37.0326ZM107.353 37.1413C107.353 35.8404 107.045 34.7679 106.429 33.9224C105.756 33.0435 104.855 32.6034 103.722 32.6034C102.954 32.6034 102.256 32.8485 101.63 33.3319C101.005 33.8194 100.597 34.4559 100.406 35.2442C100.311 35.6119 100.26 35.9114 100.26 36.1482V38.3781C100.26 39.3489 100.574 40.1693 101.196 40.8406C101.821 41.5078 102.633 41.8449 103.634 41.8449C104.808 41.8449 105.721 41.4117 106.372 40.5523C107.026 39.6901 107.353 38.5536 107.353 37.1413ZM128.543 38.6803C128.543 40.2584 127.964 41.5412 126.815 42.5315C125.551 43.6124 123.786 44.1542 121.523 44.1542C119.432 44.1542 117.756 43.7697 116.491 42.9995L117.211 40.5244C118.576 41.2961 120.076 41.6805 121.708 41.6805C122.882 41.6805 123.795 41.427 124.446 40.9242C125.098 40.42 125.428 39.7459 125.428 38.9046C125.428 38.1511 125.155 37.5201 124.619 37.0062C124.081 36.4936 123.19 36.0158 121.939 35.5771C118.537 34.3667 116.835 32.5964 116.835 30.2676C116.835 28.7467 117.436 27.5015 118.636 26.5279C119.836 25.5557 121.428 25.0696 123.408 25.0696C125.176 25.0696 126.649 25.3635 127.818 25.9499L127.037 28.3706C125.936 27.8023 124.694 27.5182 123.304 27.5182C122.206 27.5182 121.345 27.7759 120.728 28.2884C120.21 28.7467 119.947 29.3052 119.947 29.9682C119.947 30.6994 120.247 31.3067 120.842 31.783C121.359 32.2218 122.302 32.6995 123.666 33.2121C125.339 33.8556 126.569 34.6049 127.356 35.4657C128.148 36.3264 128.543 37.4003 128.543 38.6803ZM138.861 32.7427H135.43V39.2319C135.43 40.8824 136.034 41.7056 137.246 41.7056C137.802 41.7056 138.264 41.661 138.629 41.5677L138.715 43.8227C138.102 44.0413 137.294 44.1514 136.294 44.1514C135.065 44.1514 134.104 43.7934 133.41 43.0775C132.72 42.3616 132.372 41.1624 132.372 39.4743V32.7371H130.328V30.5086H132.372V28.0614L135.43 27.1811V30.5086H138.861V32.7427ZM154.311 37.0869C154.311 39.1414 153.695 40.8281 152.466 42.1471C151.179 43.5051 149.468 44.182 147.335 44.182C145.276 44.182 143.64 43.5316 142.419 42.2321C141.198 40.9298 140.588 39.289 140.588 37.3098C140.588 35.2386 141.219 33.5422 142.476 32.2232C143.736 30.9028 145.433 30.2426 147.566 30.2426C149.621 30.2426 151.273 30.8944 152.522 32.1953C153.717 33.4572 154.311 35.0868 154.311 37.0869ZM151.084 37.1552C151.084 35.9309 150.807 34.8807 150.251 34.0018C149.598 32.9405 148.664 32.4098 147.453 32.4098C146.206 32.4098 145.25 32.9405 144.599 34.0018C144.041 34.8807 143.764 35.949 143.764 37.2109C143.764 38.4366 144.041 39.4896 144.599 40.3657C145.272 41.427 146.211 41.9577 147.427 41.9577C148.617 41.9577 149.55 41.4159 150.224 40.3392C150.797 39.4394 151.084 38.3823 151.084 37.1552ZM164.434 33.1257C164.11 33.07 163.781 33.0425 163.452 33.0435C162.357 33.0435 161.511 33.4363 160.915 34.2275C160.398 34.9239 160.138 35.8041 160.138 36.8669V43.8798H157.025V34.7233C157.028 33.3202 156.998 31.9173 156.935 30.5156H159.646L159.76 33.0728H159.846C160.176 32.1939 160.693 31.485 161.403 30.9543C162.052 30.4906 162.841 30.2395 163.652 30.2384C163.94 30.2384 164.2 30.2579 164.431 30.2927L164.434 33.1257ZM178.355 36.5646C178.363 37.016 178.325 37.4671 178.241 37.9115H168.903C168.938 39.2319 169.39 40.2431 170.258 40.9395C171.045 41.5607 172.062 41.8727 173.312 41.8727C174.695 41.8727 175.956 41.6638 177.091 41.2418L177.578 43.3018C176.253 43.8533 174.687 44.1277 172.881 44.1277C170.709 44.1277 169.004 43.5176 167.762 42.3003C166.524 41.0816 165.904 39.4436 165.904 37.392C165.904 35.3779 166.481 33.6996 167.635 32.3611C168.844 30.932 170.478 30.2175 172.534 30.2175C174.553 30.2175 176.082 30.932 177.12 32.3611C177.942 33.4934 178.355 34.8974 178.355 36.5646ZM175.387 35.7944C175.409 34.9127 175.204 34.1536 174.782 33.5115C174.244 32.6842 173.414 32.2719 172.303 32.2719C171.286 32.2719 170.456 32.6744 169.826 33.4823C169.307 34.1244 168.999 34.896 168.904 35.7916L175.387 35.7944Z" fill="white"/>
<path d="M66.0103 18.7907C65.1445 18.7907 64.3955 18.7503 63.7721 18.682V9.72054C64.644 9.59205 65.5252 9.52871 66.4075 9.53112C69.9773 9.53112 71.6213 11.2067 71.6213 13.938C71.6213 17.0886 69.6794 18.7907 66.0103 18.7907ZM66.533 10.6802C66.0512 10.6802 65.641 10.7081 65.3008 10.7749V17.5873C65.4847 17.6151 65.8381 17.6277 66.3345 17.6277C68.6735 17.6277 70.005 16.3574 70.005 13.9784C70.005 11.8571 68.8005 10.6802 66.533 10.6802ZM76.7446 18.8589C74.7327 18.8589 73.4289 17.4257 73.4289 15.4799C73.4289 13.4519 74.7604 12.0062 76.8585 12.0062C78.8413 12.0062 80.1743 13.3712 80.1743 15.3727C80.1743 17.4257 78.8004 18.8589 76.7446 18.8589ZM76.803 13.0731C75.6978 13.0731 74.9896 14.0592 74.9896 15.4381C74.9896 16.7906 75.7124 17.7767 76.7884 17.7767C77.8645 17.7767 78.5872 16.7223 78.5872 15.4103C78.5872 14.0731 77.8791 13.0731 76.803 13.0731ZM91.6473 12.1413L89.4938 18.7099H88.0907L87.1986 15.8574C86.9768 15.1596 86.7921 14.4516 86.6452 13.7361H86.616C86.5036 14.452 86.2904 15.1693 86.0641 15.8574L85.1151 18.7099H83.6974L81.6708 12.1413H83.2433L84.023 15.264C84.2069 16.0078 84.3617 16.7098 84.4902 17.3728H84.5194C84.6318 16.8198 84.8158 16.129 85.0859 15.2779L86.0641 12.1427H87.311L88.2469 15.2111C88.4732 15.9549 88.6572 16.6847 88.8002 17.3742H88.8411C88.9404 16.6986 89.0966 15.9813 89.3083 15.2111L90.145 12.1427L91.6473 12.1413ZM99.5754 18.7099H98.0453V14.9381C98.0453 13.7765 97.5781 13.1943 96.6568 13.1943C95.7501 13.1943 95.1266 13.938 95.1266 14.803V18.7099H93.5965V14.0188C93.5965 13.438 93.5819 12.8154 93.5396 12.1399H94.8857L94.9573 13.1539H94.9996C95.4114 12.4519 96.2465 12.0062 97.1824 12.0062C98.6278 12.0062 99.5769 13.0606 99.5769 14.7765L99.5754 18.7099ZM103.795 18.7099H102.263V9.1272H103.795V18.7099ZM109.374 18.8589C107.363 18.8589 106.058 17.4257 106.058 15.4799C106.058 13.4519 107.39 12.0062 109.486 12.0062C111.47 12.0062 112.802 13.3712 112.802 15.3727C112.803 17.4257 111.428 18.8589 109.374 18.8589ZM109.431 13.0731C108.325 13.0731 107.617 14.0592 107.617 15.4381C107.617 16.7906 108.342 17.7767 109.415 17.7767C110.492 17.7767 111.213 16.7223 111.213 15.4103C111.215 14.0731 110.508 13.0731 109.431 13.0731ZM118.835 18.7099L118.724 17.9536H118.683C118.216 18.5622 117.534 18.8589 116.67 18.8589C115.436 18.8589 114.56 18.0344 114.56 16.9257C114.56 15.3044 116.033 14.4659 118.584 14.4659V14.3447C118.584 13.4798 118.103 13.0466 117.154 13.0466C116.475 13.0466 115.88 13.2096 115.356 13.5341L115.045 12.5745C115.681 12.1956 116.475 12.0062 117.408 12.0062C119.207 12.0062 120.115 12.9115 120.115 14.7236V17.1429C120.115 17.8059 120.146 18.3199 120.215 18.7113L118.835 18.7099ZM118.625 15.4381C116.925 15.4381 116.072 15.8309 116.072 16.7627C116.072 17.4522 116.512 17.7892 117.122 17.7892C117.9 17.7892 118.625 17.2223 118.625 16.4521V15.4381ZM127.546 18.7099L127.474 17.6555H127.432C126.992 18.4522 126.253 18.8589 125.221 18.8589C123.561 18.8589 122.332 17.4661 122.332 15.5064C122.332 13.4519 123.606 12.0048 125.347 12.0048C126.268 12.0048 126.921 12.3015 127.289 12.8976H127.319V9.1272H128.851V16.9396C128.851 17.5747 128.867 18.1695 128.908 18.7099H127.546ZM127.319 14.8448C127.319 13.9255 126.681 13.1413 125.707 13.1413C124.573 13.1413 123.879 14.101 123.879 15.452C123.879 16.7766 124.599 17.6834 125.677 17.6834C126.639 17.6834 127.319 16.8853 127.319 15.9395V14.8448ZM138.562 18.8589C136.551 18.8589 135.247 17.4257 135.247 15.4799C135.247 13.4519 136.579 12.0062 138.676 12.0062C140.66 12.0062 141.991 13.3712 141.991 15.3727C141.993 17.4257 140.619 18.8589 138.562 18.8589ZM138.619 13.0731C137.515 13.0731 136.807 14.0592 136.807 15.4381C136.807 16.7906 137.529 17.7767 138.604 17.7767C139.681 17.7767 140.403 16.7223 140.403 15.4103C140.406 14.0731 139.698 13.0731 138.619 13.0731ZM150.22 18.7099H148.689V14.9381C148.689 13.7765 148.221 13.1943 147.3 13.1943C146.393 13.1943 145.771 13.938 145.771 14.803V18.7099H144.24V14.0188C144.24 13.438 144.225 12.8154 144.183 12.1399H145.529L145.601 13.1539H145.643C146.053 12.4519 146.89 12.0048 147.824 12.0048C149.27 12.0048 150.22 13.0592 150.22 14.7751V18.7099ZM160.515 13.2361H158.831V16.4256C158.831 17.2377 159.126 17.643 159.722 17.643C159.992 17.643 160.219 17.6151 160.401 17.5747L160.443 18.6834C160.147 18.7921 159.75 18.8464 159.256 18.8464C158.05 18.8464 157.329 18.2112 157.329 16.5482V13.2361H156.325V12.1413H157.329V10.9379L158.831 10.5047V12.1399H160.515V13.2361ZM168.615 18.7099H167.087V14.966C167.087 13.7904 166.621 13.1957 165.698 13.1957C164.905 13.1957 164.167 13.7096 164.167 14.7501V18.7099H162.638V9.1272H164.167V13.0731H164.197C164.679 12.3572 165.377 12.0048 166.268 12.0048C167.725 12.0048 168.615 13.0856 168.615 14.803V18.7099ZM176.914 15.7766H172.322C172.352 17.0204 173.214 17.7224 174.492 17.7224C175.171 17.7224 175.796 17.6137 176.348 17.4118L176.586 18.4257C175.934 18.696 175.168 18.8311 174.276 18.8311C172.122 18.8311 170.848 17.5329 170.848 15.5203C170.848 13.5063 172.153 11.9923 174.104 11.9923C175.863 11.9923 176.967 13.2361 176.967 15.115C176.977 15.3367 176.959 15.5588 176.914 15.7766ZM175.511 14.7361C175.511 13.7222 174.975 13.0062 173.997 13.0062C173.118 13.0062 172.423 13.7361 172.324 14.7361H175.511Z" fill="white"/>
<defs>
<linearGradient id="paint0_linear_216_989" x1="144.485" y1="55.8458" x2="144.485" y2="-145.028" gradientUnits="userSpaceOnUse">
<stop stop-color="#1A1A1A" stop-opacity="0.1"/>
<stop offset="0.123" stop-color="#212121" stop-opacity="0.151"/>
<stop offset="0.308" stop-color="#353535" stop-opacity="0.227"/>
<stop offset="0.532" stop-color="#575757" stop-opacity="0.318"/>
<stop offset="0.783" stop-color="#858585" stop-opacity="0.421"/>
<stop offset="1" stop-color="#B3B3B3" stop-opacity="0.51"/>
</linearGradient>
</defs>
</svg>
