<svg xmlns="http://www.w3.org/2000/svg" height="800" width="1200" viewBox="-9.842505 -4.528825 85.30171 27.17295"><g stroke-width="3.5719"><path d="M41.8504 17.855s-.0678-1.0845.61-2.4294c0 0 2.1025-2.5656-3.2546-6.973 0 0-3.1076-2.435-3.4237-3.989L38.149 6.47l-.0562-.3394S35.4371 3.6724 35.4371 3.56l-.0278-.6782 2.5707 2.627s-.1525-.4747-.3956-.7173L35.239 2.1472l.0684-.735 2.4744 3.0514-.0279-.311S35.7138 1.6043 35.3075.655l.158-.655s3.0514 6.2947 8.4475 7.5434c0 0 2.2035.627 3.1356.808 0 0 1.7804.4745.7633 2.0002" fill="#949599"/><path d="M12.4082 17.9457L9.2215 4.995H6.9163L0 18.013h2.17l1.712-3.6612 4.0681-.0846.8642 3.6785zm-4.4413-4.916H4.543L6.8484 8.673m7.5262 9.281l1.2458-9.2977h2.924l-.1692 1.8645s1.1524-2.1695 2.746-1.9998l-.4407 3.0509s-1.9701-.927-2.562 1.198l-.6335 5.1841m7.4983 0h-2.8817l1.2886-9.0607h2.8477m1.5838 9.0607l1.6275-12.1116 2.8138-.034-.9831 6.8146h.5764l3.526-3.865 2.6097.034-3.6273 3.831 2.6107 5.3733-3.6701-.0423-1.5169-4.0768h-.7122l-.5425 4.0345" fill="#0d3f84"/><path d="M42.1768 18.1153l6.7744-7.9952s.6165-1.0534 2.5345-1.1008c1.918-.0479 5.6472-.6768 6.5346-.9209.8879-.2445 6.6466-2.0273 7.5964-3.0964 0 0-1.271 1.2323-1.8023 1.4415 0 0-3.5418 1.5192-4.4915 1.7363l-.3454.3523s3.7128-1.112 3.8449-1.2746l-.9614.7205s-2.7748.8372-3.434.9883l-.461.4342s2.8681-.787 3.0346-.8684c0 0-.6815.5314-.8136.6318 0 0-2.5037.628-2.6818.6978l-.3798.3258 2.5498-.6512s-3.9532 2.4414-5.4528 2.7399c0 0-3.4066.9883-5.0578 1.1937-1.6507.2055-2.2708 1.2208-2.9068 1.7363-.6355.515-2.7208 2.6586-4.081 2.9091" fill="#949599"/></g></svg>