<?xml version="1.0" encoding="UTF-8"?>
<!DOCTYPE svg PUBLIC "-//W3C//DTD SVG 1.1//EN" "http://www.w3.org/Graphics/SVG/1.1/DTD/svg11.dtd">
<!-- Creator: CorelDRAW 2019 (64-Bit) -->
<svg xmlns="http://www.w3.org/2000/svg" xml:space="preserve" width="6.24052in" height="6.24052in" version="1.1" style="shape-rendering:geometricPrecision; text-rendering:geometricPrecision; image-rendering:optimizeQuality; fill-rule:evenodd; clip-rule:evenodd"
viewBox="0 0 983.37 983.37"
 xmlns:xlink="http://www.w3.org/1999/xlink"
 xmlns:xodm="http://www.corel.com/coreldraw/odm/2003">
 <defs>
  <style type="text/css">
   <![CDATA[
    .fil0 {fill:#40196D}
    .fil1 {fill:white}
    .fil2 {fill:white;fill-rule:nonzero}
   ]]>
  </style>
 </defs>
 <g id="Layer_x0020_1">
  <metadata id="CorelCorpID_0Corel-Layer"/>
  <g id="_1215227280">
   <circle class="fil0" cx="491.69" cy="491.69" r="491.69"/>
   <path class="fil1" d="M964.86 625.76c-4.71,16.65 -10.29,32.94 -16.66,48.82l-526.27 303.84c-17.2,-2.45 -34.11,-5.76 -50.69,-9.94l593.63 -342.73z"/>
   <path class="fil2" d="M343.52 470.17l36.74 0 0 117.49c0,187.35 71.02,254.7 259.6,254.7l0 -11.02c-77.14,0 -106.53,-51.43 -106.53,-243.68l0 -117.49 106.53 0 0 -98.33 -106.53 0 0 -110.02c15.79,-12.37 25.95,-31.62 25.95,-53.23 0,-37.32 -30.26,-67.58 -67.58,-67.58 -37.32,0 -67.58,30.26 -67.58,67.58 0,37.32 30.26,67.58 67.58,67.58 0.44,0 0.89,-0.01 1.33,-0.02 -23.99,52.77 -63.01,95.69 -112.76,95.69l-36.74 0 0 98.33z"/>
  </g>
 </g>
</svg>
