<?xml version="1.0" encoding="UTF-8"?>
<!DOCTYPE svg PUBLIC "-//W3C//DTD SVG 1.1//EN" "http://www.w3.org/Graphics/SVG/1.1/DTD/svg11.dtd">
<!-- Creator: CorelDRAW 2019 (64-Bit) -->
<svg xmlns="http://www.w3.org/2000/svg" xml:space="preserve" width="6.24052in" height="6.24052in" version="1.1" style="shape-rendering:geometricPrecision; text-rendering:geometricPrecision; image-rendering:optimizeQuality; fill-rule:evenodd; clip-rule:evenodd"
viewBox="0 0 1405.43 1405.43"
 xmlns:xlink="http://www.w3.org/1999/xlink"
 xmlns:xodm="http://www.corel.com/coreldraw/odm/2003">
 <defs>
  <style type="text/css">
   <![CDATA[
    .fil0 {fill:#FEFEFE}
    .fil1 {fill:#40196D}
    .fil2 {fill:#40196D;fill-rule:nonzero}
   ]]>
  </style>
 </defs>
 <g id="Layer_x0020_1">
  <metadata id="CorelCorpID_0Corel-Layer"/>
  <circle class="fil0" cx="702.72" cy="702.72" r="702.72"/>
  <path class="fil1" d="M1378.98 894.33c-6.73,23.8 -14.71,47.08 -23.81,69.78l-752.15 434.25c-24.58,-3.5 -48.75,-8.24 -72.45,-14.2l848.41 -489.83z"/>
  <path class="fil2" d="M490.96 671.96l52.5 0 0 167.92c0,267.76 101.51,364.02 371.02,364.02l0 -15.75c-110.25,0 -152.26,-73.5 -152.26,-348.27l0 -167.92 152.26 0 0 -140.53 -152.26 0 0 -157.23c22.57,-17.68 37.08,-45.19 37.08,-76.08 0,-53.34 -43.24,-96.58 -96.58,-96.58 -53.34,0 -96.58,43.24 -96.58,96.58 0,53.34 43.24,96.58 96.58,96.58 0.63,0 1.27,-0.01 1.9,-0.02 -34.29,75.42 -90.06,136.76 -161.16,136.76l-52.5 0 0 140.53z"/>
 </g>
</svg>
